<svg id="icon" height="512" viewBox="0 0 128 128" width="512" xmlns="http://www.w3.org/2000/svg"><path d="m96.216 30.909v15.441h-85.793a7.72 7.72 0 1 1 0-15.441z" fill="#e1b378"/><path d="m96.216 47.35h-85.794a8.72 8.72 0 0 1 0-17.44h85.794a1 1 0 0 1 1 1v15.44a1 1 0 0 1 -1 1zm-85.794-15.441a6.72 6.72 0 1 0 0 13.44h84.794v-13.44z" fill="#2f3a5a"/><path d="m17.26 24.517h100.434v58.162h-100.434z" fill="#8ae0a1" transform="matrix(.82 -.573 .573 .82 -18.534 48.302)"/><path d="m42.965 107.2a1 1 0 0 1 -.821-.427l-33.308-47.684a1 1 0 0 1 .247-1.389l82.334-57.52a1 1 0 0 1 1.393.247l33.308 47.68a1 1 0 0 1 -.247 1.393l-82.334 57.516a1 1 0 0 1 -.572.184zm-31.917-48.437 32.163 46.037 80.694-56.371-32.162-46.036z" fill="#2f3a5a"/><path d="m85.415 13.078-62.156 43.422a6.782 6.782 0 0 1 -1.676 9.444l18.512 26.5a6.782 6.782 0 0 1 9.444 1.676l62.155-43.42a6.782 6.782 0 0 1 1.676-9.444l-18.512-26.5a6.782 6.782 0 0 1 -9.443-1.678z" fill="#6fc682"/><g fill="#f0f5f9"><circle cx="67.477" cy="53.598" r="13.458" transform="matrix(.82 -.573 .573 .82 -18.534 48.302)"/><circle cx="92.317" cy="36.245" r="4.999" transform="matrix(.82 -.573 .573 .82 -4.12 59.4)"/><circle cx="42.636" cy="70.951" r="4.999" transform="matrix(.82 -.573 .573 .82 -32.948 37.203)"/></g><path d="m109.249 46.35v80.65h-98.849a7.69 7.69 0 0 1 -7.7-7.686v-80.685a7.719 7.719 0 0 0 7.72 7.72z" fill="#e1b378"/><path d="m109.249 128h-98.849a8.7 8.7 0 0 1 -8.7-8.687v-80.684a1 1 0 0 1 2 0 6.718 6.718 0 0 0 6.72 6.72h98.827a1 1 0 0 1 1 1v80.651a1 1 0 0 1 -.998 1zm-105.549-83.812v75.125a6.7 6.7 0 0 0 6.7 6.687h97.849v-78.65h-97.827a8.706 8.706 0 0 1 -6.163-2.55q-.295-.3-.559-.612z" fill="#2f3a5a"/><path d="m14.379 119.649c-6 0-9.355-1.825-10.234-5.567a.375.375 0 1 1 .73-.172c.827 3.524 4.038 5.118 10.133 4.982h86.043v-62.76h-84.844c-5.162.03-10.186-.437-12.03-4a.375.375 0 1 1 .666-.345c1.659 3.209 6.433 3.641 11.362 3.6h85.222a.375.375 0 0 1 .375.375v63.51a.375.375 0 0 1 -.375.375h-86.411q-.323.002-.637.002z" fill="#bd8d5a"/><path d="m79.927 79.194a9.926 9.926 0 1 0 0 19.852h29.327v-19.852z" fill="#e1b378"/><g fill="#2f3a5a"><path d="m109.254 100.046h-29.327a10.926 10.926 0 0 1 0-21.852h29.327a1 1 0 0 1 1 1v19.852a1 1 0 0 1 -1 1zm-29.327-19.852a8.926 8.926 0 0 0 0 17.852h28.327v-17.852z"/><circle cx="80.746" cy="88.844" r="4.36"/></g></svg>